<svg width="154" height="105" viewBox="0 0 154 105" fill="none" xmlns="http://www.w3.org/2000/svg">
<path d="M153.56 97.7819C153.884 98.2293 153.783 98.8545 153.336 99.1783L146.045 104.455C145.597 104.778 144.972 104.678 144.648 104.231C144.325 103.783 144.425 103.158 144.872 102.834L151.353 98.1443L146.663 91.6633C146.339 91.2159 146.44 90.5907 146.887 90.2669C147.334 89.9432 147.96 90.0434 148.283 90.4908L153.56 97.7819ZM62.5149 16.8962L62.9476 17.7978L62.5149 16.8962ZM110.521 85.3667L110.021 86.2327L110.521 85.3667ZM34.3754 33.9277L34.9165 33.0868L34.3754 33.9277ZM106.021 50.1675L107.003 50.3556L106.021 50.1675ZM152.75 98.3681C152.591 99.3555 152.591 99.3555 152.591 99.3555C152.591 99.3555 152.591 99.3555 152.591 99.3555C152.591 99.3555 152.591 99.3555 152.591 99.3555C152.591 99.3555 152.591 99.3555 152.591 99.3554C152.59 99.3554 152.59 99.3553 152.589 99.3551C152.587 99.3549 152.585 99.3546 152.583 99.3541C152.577 99.3533 152.569 99.352 152.559 99.3503C152.538 99.3469 152.507 99.3418 152.466 99.3351C152.385 99.3217 152.265 99.3018 152.109 99.2753C151.797 99.2222 151.338 99.1429 150.753 99.0374L151.108 97.0691C151.686 97.1734 152.137 97.2515 152.444 97.3035C152.597 97.3294 152.714 97.3489 152.792 97.3618C152.831 97.3682 152.86 97.373 152.88 97.3762C152.889 97.3778 152.897 97.3789 152.901 97.3797C152.904 97.3801 152.905 97.3804 152.907 97.3805C152.907 97.3806 152.908 97.3807 152.908 97.3807C152.908 97.3807 152.908 97.3808 152.908 97.3808C152.908 97.3808 152.908 97.3808 152.908 97.3808C152.908 97.3808 152.908 97.3808 152.908 97.3808C152.908 97.3808 152.908 97.3808 152.75 98.3681ZM147.105 98.3424C146.016 98.1246 144.795 97.8717 143.471 97.5838L143.896 95.6294C145.208 95.9148 146.418 96.1654 147.497 96.3812L147.105 98.3424ZM139.845 96.7635C138.686 96.4909 137.478 96.1968 136.236 95.8812L136.729 93.9428C137.958 94.2552 139.154 94.5465 140.303 94.8166L139.845 96.7635ZM132.641 94.9308C131.463 94.6068 130.267 94.2651 129.063 93.9056L129.636 91.9893C130.824 92.3443 132.006 92.682 133.171 93.0023L132.641 94.9308ZM125.508 92.7958C124.327 92.4102 123.147 92.0075 121.98 91.5876L122.657 89.7057C123.804 90.1182 124.964 90.5145 126.129 90.8945L125.508 92.7958ZM118.488 90.2624C117.314 89.7916 116.162 89.3021 115.044 88.7937L115.872 86.9731C116.96 87.4676 118.083 87.9454 119.232 88.4061L118.488 90.2624ZM111.671 87.1431C111.107 86.8455 110.557 86.542 110.021 86.2327L111.021 84.5006C111.534 84.7967 112.062 85.0881 112.605 85.3748L111.671 87.1431ZM110.021 86.2327C109.442 85.8983 108.854 85.5549 108.259 85.2029L109.277 83.4814C109.866 83.8299 110.448 84.1698 111.021 84.5006L110.021 86.2327ZM104.726 83.0671C103.584 82.3622 102.421 81.6306 101.243 80.8748L102.323 79.1915C103.492 79.9411 104.644 80.6665 105.776 81.3653L104.726 83.0671ZM97.8021 78.626C96.6745 77.8758 95.5376 77.1062 94.3957 76.3192L95.5306 74.6724C96.6634 75.4531 97.7913 76.2166 98.91 76.9609L97.8021 78.626ZM91.0261 73.956C89.9156 73.1633 88.8041 72.3561 87.6958 71.5362L88.8851 69.9283C89.9842 70.7413 91.0864 71.5418 92.188 72.3281L91.0261 73.956ZM84.4073 69.0585C83.3184 68.2225 82.2362 67.3758 81.1645 66.52L82.4124 64.9571C83.4739 65.8047 84.546 66.6436 85.6252 67.4721L84.4073 69.0585ZM77.972 63.9169C76.911 63.033 75.8646 62.1414 74.8365 61.2441L76.1517 59.7373C77.1676 60.6241 78.2024 61.5057 79.2522 62.3803L77.972 63.9169ZM71.7666 58.495C70.7409 57.5517 69.7392 56.6038 68.7661 55.6535L70.1634 54.2226C71.1214 55.1581 72.1085 56.0922 73.1205 57.0229L71.7666 58.495ZM65.855 52.7119C64.8829 51.6932 63.9482 50.6737 63.0565 49.6559L64.5608 48.338C65.4324 49.3328 66.3478 50.3313 67.3019 51.3311L65.855 52.7119ZM60.4045 46.4685C59.5212 45.3454 58.6972 44.2264 57.9403 43.1148L59.5934 41.9892C60.3219 43.059 61.1185 44.1411 61.9766 45.2321L60.4045 46.4685ZM55.7315 39.541C55.0225 38.2565 54.4162 36.9834 53.9274 35.7277L55.7912 35.0023C56.2433 36.1637 56.81 37.3562 57.4825 38.5745L55.7315 39.541ZM52.7521 31.6029C52.4948 30.1085 52.4408 28.6431 52.6245 27.2228L54.608 27.4793C54.4533 28.6754 54.4949 29.9383 54.7231 31.2635L52.7521 31.6029ZM53.9866 22.9988C54.6559 21.7678 55.5572 20.6157 56.6993 19.5503L58.0636 21.0127C57.0651 21.9441 56.3016 22.928 55.7437 23.9541L53.9866 22.9988ZM60.1699 17.0069C60.7701 16.656 61.4074 16.3185 62.0823 15.9946L62.9476 17.7978C62.3185 18.0996 61.7295 18.4118 61.1792 18.7336L60.1699 17.0069ZM62.0823 15.9946C62.7457 15.6763 63.4074 15.3822 64.0671 15.1118L64.8257 16.9623C64.2026 17.2177 63.5764 17.496 62.9476 17.7978L62.0823 15.9946ZM68.1767 13.7197C69.6147 13.3342 71.0376 13.0588 72.4412 12.8864L72.685 14.8715C71.3751 15.0324 70.0437 15.2898 68.6945 15.6515L68.1767 13.7197ZM76.7904 12.6759C78.2679 12.7151 79.7152 12.8674 81.127 13.123L80.7706 15.091C79.4579 14.8533 78.1119 14.7116 76.7374 14.6752L76.7904 12.6759ZM85.3448 14.2225C86.7269 14.6962 88.0636 15.2698 89.3489 15.932L88.4329 17.7099C87.2315 17.0909 85.9841 16.5558 84.6964 16.1144L85.3448 14.2225ZM93.0651 18.1873C94.2499 19.0225 95.3768 19.9361 96.4398 20.9169L95.0836 22.3868C94.0833 21.4639 93.0244 20.6056 91.9128 19.822L93.0651 18.1873ZM99.434 24.0523C100.366 25.1595 101.229 26.3233 102.015 27.5325L100.339 28.6231C99.5965 27.4822 98.783 26.3844 97.904 25.3404L99.434 24.0523ZM104.15 31.3032C104.786 32.608 105.338 33.9485 105.801 35.3133L103.906 35.9549C103.472 34.6716 102.952 33.4093 102.352 32.1793L104.15 31.3032ZM106.919 39.5098C107.198 40.94 107.377 42.3841 107.447 43.8297L105.45 43.9276C105.384 42.5811 105.217 41.2324 104.956 39.893L106.919 39.5098ZM107.326 48.1914C107.248 48.9161 107.141 49.6381 107.003 50.3556L105.039 49.9794C105.166 49.3168 105.265 48.6493 105.337 47.9781L107.326 48.1914ZM107.003 50.3556C106.859 51.1072 106.678 51.8181 106.46 52.489L104.558 51.8713C104.749 51.2852 104.91 50.6554 105.039 49.9794L107.003 50.3556ZM104.404 56.4625C103.447 57.6936 102.284 58.6587 100.951 59.3812L99.9979 57.6229C101.097 57.0272 102.044 56.2396 102.826 55.2346L104.404 56.4625ZM96.7351 60.8039C95.3751 61.0444 93.9238 61.1324 92.4013 61.0902L92.4567 59.0909C93.8693 59.1301 95.1828 59.0473 96.3869 58.8344L96.7351 60.8039ZM88.1564 60.6797C86.8161 60.4684 85.4321 60.1816 84.0133 59.8285L84.4962 57.8877C85.8663 58.2286 87.1927 58.5031 88.4679 58.7041L88.1564 60.6797ZM79.9534 58.6736C78.6562 58.2619 77.3361 57.805 75.9989 57.3089L76.6946 55.4338C78.0049 55.92 79.2947 56.3662 80.5585 56.7673L79.9534 58.6736ZM72.101 55.7748C70.8332 55.2488 69.5545 54.6934 68.2694 54.1131L69.0925 52.2903C70.3604 52.8629 71.6202 53.41 72.8674 53.9275L72.101 55.7748ZM64.4916 52.3467C63.2477 51.746 62.0015 51.1262 60.757 50.4913L61.6659 48.7097C62.8984 49.3385 64.1315 49.9518 65.3613 50.5457L64.4916 52.3467ZM57.0649 48.5624C55.8399 47.9079 54.6201 47.2423 53.4094 46.5694L54.3809 44.8212C55.5827 45.4891 56.7927 46.1494 58.0074 46.7983L57.0649 48.5624ZM49.7876 44.521C48.5767 43.8246 47.3789 43.1245 46.1983 42.4248L47.218 40.7043C48.3916 41.3998 49.5818 42.0955 50.7847 42.7873L49.7876 44.521ZM42.6289 40.2802C41.4248 39.5471 40.2443 38.819 39.0921 38.1005L40.1504 36.4034C41.2969 37.1184 42.4713 37.8427 43.6689 38.5718L42.6289 40.2802ZM35.5747 35.883C34.9845 35.507 34.4042 35.1353 33.8343 34.7687L34.9165 33.0868C35.4839 33.4519 36.0618 33.822 36.6493 34.1963L35.5747 35.883ZM33.8343 34.7687C33.2727 34.4073 32.7182 34.0428 32.171 33.6754L33.2857 32.0149C33.8223 32.3751 34.3659 32.7325 34.9165 33.0868L33.8343 34.7687ZM28.9129 31.3967C27.8262 30.6054 26.771 29.8053 25.7473 29.0001L26.9839 27.4282C27.9886 28.2185 29.024 29.0036 30.0902 29.7799L28.9129 31.3967ZM22.6715 26.4883C21.6397 25.6142 20.6445 24.7384 19.6857 23.8654L21.0321 22.3865C21.9739 23.244 22.9513 24.1041 23.9643 24.9624L22.6715 26.4883ZM16.7959 21.1403C15.8209 20.1881 14.8902 19.2451 14.0037 18.3173L15.4496 16.9356C16.3208 17.8473 17.2353 18.7739 18.1933 19.7094L16.7959 21.1403ZM11.3119 15.4015C10.3885 14.366 9.52499 13.36 8.72132 12.3931L10.2594 11.1147C11.0488 12.0645 11.8972 13.0529 12.8046 14.0704L11.3119 15.4015ZM6.23658 9.29264C5.34139 8.13314 4.5528 7.06266 3.87057 6.10414L5.49999 4.9444C6.16797 5.8829 6.94113 6.93249 7.81966 8.07041L6.23658 9.29264ZM1.62956 2.79909C1.28254 2.25809 1.02146 1.83384 0.846143 1.54312C0.758488 1.39775 0.692265 1.28575 0.647458 1.20922C0.62506 1.17096 0.608005 1.14155 0.596306 1.12128C0.590452 1.11114 0.585944 1.10328 0.582766 1.09774C0.581177 1.09496 0.579929 1.09278 0.57901 1.09117C0.578545 1.09035 0.578177 1.0897 0.577879 1.08919C0.577737 1.08893 0.577611 1.08871 0.577498 1.08852C0.57745 1.08843 0.57741 1.08835 0.577368 1.08828C0.577339 1.08824 0.577316 1.08819 0.577308 1.08818C0.577285 1.08813 0.577257 1.08809 1.44645 0.593626C2.31565 0.0991631 2.31564 0.0991303 2.31561 0.0990888C2.31561 0.0990857 2.31558 0.0990442 2.31558 0.0990294C2.31556 0.0989965 2.31555 0.0989668 2.31552 0.0989434C2.31551 0.0989105 2.31551 0.0989105 2.31553 0.0989402C2.31557 0.0990145 2.3157 0.0992343 2.3159 0.099591C2.31631 0.100316 2.31706 0.101626 2.31813 0.103505C2.32029 0.107266 2.32377 0.113336 2.3286 0.121681C2.33822 0.138368 2.35316 0.164145 2.37342 0.198755C2.41396 0.267987 2.47576 0.37254 2.55885 0.510334C2.72504 0.785937 2.97637 1.19447 3.313 1.71926L1.62956 2.79909Z" fill="black"/>
</svg>
